<svg width="410" height="404" viewBox="0 0 410 404" fill="none" xmlns="http://www.w3.org/2000/svg">
<rect width="410" height="404" fill="black"/>
<path d="M337.904 231.119L310.077 155.773C308.484 151.463 303.705 148.998 299.279 150.446C297.083 151.166 295.404 152.674 294.418 154.528C293.884 155.202 293.488 155.998 293.289 156.887L280.782 213.398C280.205 216.002 276.549 216.294 275.555 213.817L259.064 172.871C257.747 169.598 254.491 167.49 250.918 167.57C247.34 167.659 244.197 169.928 243.047 173.265L228.249 216.125C227.616 217.958 224.929 217.802 224.52 215.905L211.87 156.861C211.853 156.781 211.827 156.705 211.806 156.628C211.22 153.885 209.257 151.492 206.38 150.463C201.954 148.875 197.055 151.12 195.44 155.477L179.079 199.628C178.609 200.89 176.792 200.877 176.344 199.611L166.588 172.13C165.395 168.773 162.188 166.52 158.571 166.503H158.528C154.933 166.503 151.716 168.722 150.498 172.05L134.468 215.799C133.74 217.781 130.817 217.543 130.434 215.469L119.855 158.216C119.738 157.585 119.519 156.997 119.226 156.463C118.24 154.041 116.29 152.009 113.625 150.984C108.501 149.011 102.727 151.492 100.721 156.527L71.705 229.323C69.6986 234.358 72.2217 240.04 77.341 242.014C78.5337 242.475 79.7651 242.691 80.9707 242.691C84.9491 242.691 88.7036 240.333 90.245 236.471L109.155 189.034C109.986 186.95 113.073 187.247 113.478 189.449L123.949 246.142C124.41 248.636 126.412 250.474 128.815 250.885C129.31 251.185 129.839 251.439 130.408 251.642C131.364 251.981 132.341 252.142 133.301 252.142C136.797 252.142 140.078 250.012 141.331 246.591L157.008 203.799C157.473 202.533 159.294 202.541 159.746 203.812L169.468 231.199C170.652 234.536 173.856 236.772 177.451 236.772H177.511C181.094 236.772 184.301 234.565 185.533 231.25L201.683 187.67C202.514 185.422 205.821 185.655 206.325 187.996L218.652 245.532C218.729 248.958 220.942 252.129 224.434 253.298C225.342 253.603 226.268 253.747 227.177 253.747C230.733 253.747 234.053 251.545 235.258 248.048L250.328 204.392C250.81 202.994 252.804 202.944 253.355 204.315L270.026 245.714C271.761 250.025 276.721 252.134 281.105 250.427C284.39 249.148 286.413 246.091 286.495 242.822L298.908 186.739C299.391 184.562 302.465 184.359 303.24 186.451L321.857 236.865C323.119 240.278 326.391 242.395 329.879 242.395C330.847 242.395 331.829 242.234 332.794 241.887C337.224 240.303 339.51 235.489 337.9 231.131L337.904 231.119Z" fill="white"/>
</svg>
