<?xml version="1.0" encoding="utf-8"?>
<!-- Generator: Adobe Illustrator 27.0.0, SVG Export Plug-In . SVG Version: 6.00 Build 0)  -->
<svg version="1.1" id="Layer_1" xmlns="http://www.w3.org/2000/svg" xmlns:xlink="http://www.w3.org/1999/xlink" x="0px" y="0px"
	 viewBox="0 0 128 128" style="enable-background:new 0 0 128 128;" xml:space="preserve">
<style type="text/css">
	.st0{fill:#FFFFFF;}
</style>
<path class="st0" d="M109.9,74.3l-9.6-26.6c-0.6-1.5-2.2-2.4-3.7-1.9c-0.8,0.3-1.3,0.8-1.7,1.4c-0.2,0.2-0.3,0.5-0.4,0.8l-4.3,19.9
	c-0.2,0.9-1.5,1-1.8,0.1l-5.7-14.4c-0.5-1.2-1.6-1.9-2.8-1.9c-1.2,0-2.3,0.8-2.7,2L71.9,69c-0.2,0.6-1.2,0.6-1.3-0.1l-4.4-20.8
	c0,0,0-0.1,0-0.1c-0.2-1-0.9-1.8-1.9-2.2c-1.5-0.6-3.2,0.2-3.8,1.8l-5.7,15.6c-0.2,0.4-0.8,0.4-0.9,0l-3.4-9.7c-0.4-1.2-1.5-2-2.8-2
	c0,0,0,0,0,0c-1.2,0-2.4,0.8-2.8,2l-5.6,15.4c-0.3,0.7-1.3,0.6-1.4-0.1l-3.7-20.2c0-0.2-0.1-0.4-0.2-0.6c-0.3-0.9-1-1.6-1.9-1.9
	c-1.8-0.7-3.8,0.2-4.5,2L17.6,73.7c-0.7,1.8,0.2,3.8,2,4.5c0.4,0.2,0.8,0.2,1.3,0.2c1.4,0,2.7-0.8,3.2-2.2l6.6-16.7
	c0.3-0.7,1.4-0.6,1.5,0.1l3.6,20c0.2,0.9,0.9,1.5,1.7,1.7c0.2,0.1,0.4,0.2,0.6,0.3c0.3,0.1,0.7,0.2,1,0.2c1.2,0,2.3-0.8,2.8-2
	l5.4-15.1c0.2-0.4,0.8-0.4,0.9,0l3.4,9.7c0.4,1.2,1.5,2,2.8,2h0c1.2,0,2.4-0.8,2.8-1.9L62.7,59c0.3-0.8,1.4-0.7,1.6,0.1l4.3,20.3
	c0,1.2,0.8,2.3,2,2.7c0.3,0.1,0.6,0.2,1,0.2c1.2,0,2.4-0.8,2.8-2l5.2-15.4c0.2-0.5,0.9-0.5,1,0l5.8,14.6c0.6,1.5,2.3,2.3,3.8,1.7
	c1.1-0.5,1.8-1.5,1.9-2.7l4.3-19.8c0.2-0.8,1.2-0.8,1.5-0.1l6.5,17.8c0.4,1.2,1.6,1.9,2.8,1.9c0.3,0,0.7-0.1,1-0.2
	C109.7,77.6,110.5,75.9,109.9,74.3z"/>
</svg>
