<?xml version="1.0" encoding="UTF-8"?><svg id="Layer_2" xmlns="http://www.w3.org/2000/svg" viewBox="0 0 878.74 878.74"><defs><style>.cls-1{fill:#fff;}.cls-2{fill:none;}</style></defs><g id="_Layer_"><rect class="cls-2" width="878.74" height="878.74"/><g><path class="cls-1" d="M748.7,460.99l-64.63-177.94c-3.7-10.18-14.8-16-25.08-12.58-5.1,1.7-9,5.26-11.29,9.64-1.24,1.59-2.16,3.47-2.62,5.57l-29.05,133.46c-1.34,6.15-9.83,6.84-12.14,.99l-38.3-96.7c-3.06-7.73-10.62-12.71-18.92-12.52-8.31,.21-15.61,5.57-18.28,13.45l-34.37,101.22c-1.47,4.33-7.71,3.96-8.66-.52l-29.38-139.44c-.04-.19-.1-.37-.15-.55-1.36-6.48-5.92-12.13-12.6-14.56-10.28-3.75-21.66,1.55-25.41,11.84l-38,104.27c-1.09,2.98-5.31,2.95-6.35-.04l-22.66-64.9c-2.77-7.93-10.22-13.25-18.62-13.29h-.1c-8.35,0-15.82,5.24-18.65,13.1l-37.23,103.32c-1.69,4.68-8.48,4.12-9.37-.78l-24.57-135.21c-.27-1.49-.78-2.88-1.46-4.14-2.29-5.72-6.82-10.52-13.01-12.94-11.9-4.66-25.31,1.2-29.97,13.09l-67.39,171.92c-4.66,11.89,1.2,25.31,13.09,29.97,2.77,1.09,5.63,1.6,8.43,1.6,9.24,0,17.96-5.57,21.54-14.69l43.92-112.03c1.93-4.92,9.1-4.22,10.04,.98l24.32,133.89c1.07,5.89,5.72,10.23,11.3,11.2,1.15,.71,2.38,1.31,3.7,1.79,2.22,.8,4.49,1.18,6.72,1.18,8.12,0,15.74-5.03,18.65-13.11l36.41-101.06c1.08-2.99,5.31-2.97,6.36,.03l22.58,64.68c2.75,7.88,10.19,13.16,18.54,13.16h.14c8.32,0,15.77-5.21,18.63-13.04l37.51-102.92c1.93-5.31,9.61-4.76,10.78,.77l28.63,135.88c.18,8.09,5.32,15.58,13.43,18.34,2.11,.72,4.26,1.06,6.37,1.06,8.26,0,15.97-5.2,18.77-13.46l35-103.1c1.12-3.3,5.75-3.42,7.03-.18l38.72,97.77c4.03,10.18,15.55,15.16,25.73,11.13,7.63-3.02,12.33-10.24,12.52-17.96l28.83-132.45c1.12-5.14,8.26-5.62,10.06-.68l43.24,119.06c2.93,8.06,10.53,13.06,18.63,13.06,2.25,0,4.53-.38,6.77-1.2,10.29-3.74,15.6-15.11,11.86-25.4Z"/><g><polygon class="cls-1" points="474.18 584.99 465.37 544.07 443.17 544.07 434.36 584.99 428.49 544.07 402.34 544.07 396.47 585.41 387.66 544.5 365.46 544.5 356.65 585.41 350.78 544.5 328.85 544.5 343.71 609.45 369.03 609.45 376.56 572.57 384.08 609.45 409.4 609.45 415.46 582.96 421.43 609.03 446.75 609.03 454.27 572.15 461.79 609.03 487.11 609.03 501.97 544.07 480.05 544.07 474.18 584.99"/><path class="cls-1" d="M518.49,544.07l-23.76,64.95h21.38l3.21-9.82h21.65l3.21,9.82h21.47l-23.67-64.95h-23.49Zm5.78,39.81l5.87-18.07,5.87,18.07h-11.74Z"/><polygon class="cls-1" points="587.69 588.75 574.29 544.07 552.64 544.07 574.48 609.03 600.81 609.03 622.64 544.07 600.99 544.07 587.69 588.75"/><polygon class="cls-1" points="627.23 609.03 670.53 609.03 670.53 592.79 647.59 592.79 647.59 583.61 667.78 583.61 667.78 568.29 647.59 568.29 647.59 560.22 670.53 560.22 670.53 544.07 627.23 544.07 627.23 609.03"/><polygon class="cls-1" points="250.14 577.71 228.58 544.5 208.21 544.5 208.21 609.45 228.58 609.45 228.58 576.79 250.14 609.45 270.5 609.45 270.5 544.5 250.14 544.5 250.14 577.71"/><polygon class="cls-1" points="279.68 609.45 322.98 609.45 322.98 593.21 300.04 593.21 300.04 584.04 320.23 584.04 320.23 568.72 300.04 568.72 300.04 560.64 322.98 560.64 322.98 544.5 279.68 544.5 279.68 609.45"/></g></g></g></svg>